<svg width="60" height="60" viewBox="0 0 60 60" fill="none" xmlns="http://www.w3.org/2000/svg">
<rect width="60" height="60" rx="3" fill="#1F80F2"/>
<path d="M44.0909 42.2726H36.6095C36.285 42.2726 35.9796 42.1144 35.7926 41.8493L25.0818 26.675C24.8609 26.3623 24.463 26.2282 24.0978 26.3442C23.7328 26.46 23.4848 26.7989 23.4848 27.1819V42.2121C23.4848 42.2455 23.4578 42.2726 23.4244 42.2726H18.6669V20.6061C18.6669 20.1207 18.2734 19.7272 17.788 19.7272C17.3026 19.7272 16.9091 20.1207 16.9091 20.6061V42.2726H15.9093C15.4239 42.2726 15.0303 42.6661 15.0303 43.1515C15.0303 43.6369 15.4239 44.0304 15.9093 44.0304H23.4244C24.427 44.0304 25.2427 43.2148 25.2427 42.2121V29.9511L34.3566 42.8631C34.8725 43.5941 35.7148 44.0304 36.6095 44.0304H44.0909C44.5762 44.0304 44.9698 43.6369 44.9698 43.1515C44.9698 42.6661 44.5762 42.2726 44.0909 42.2726Z" fill="white"/>
<path d="M44.0909 15.9696H36.5766C35.5739 15.9696 34.7583 16.7852 34.7583 17.7879V30.0489L25.6444 17.137C25.1284 16.406 24.2862 15.9696 23.3914 15.9696H15.9091C15.4237 15.9696 15.0302 16.3631 15.0302 16.8485C15.0302 17.3339 15.4237 17.7274 15.9091 17.7274H23.3914C23.7159 17.7274 24.0212 17.8856 24.2082 18.1507L34.9192 33.325C35.087 33.5627 35.3571 33.697 35.6373 33.697C35.7258 33.697 35.8154 33.6836 35.9031 33.6558C36.2681 33.54 36.5161 33.2011 36.5161 32.8181V17.788C36.5161 17.7546 36.5432 17.7275 36.5766 17.7275H41.3331V39.394C41.3331 39.8794 41.7266 40.2729 42.212 40.2729C42.6974 40.2729 43.0909 39.8794 43.0909 39.394V17.7274H44.0909C44.5762 17.7274 44.9698 17.3339 44.9698 16.8485C44.9698 16.3631 44.5762 15.9696 44.0909 15.9696Z" fill="white"/>
<path d="M11.2121 5.63637H7.45465C6.45199 5.63637 5.63637 6.45199 5.63637 7.45465V11.2121C5.63637 12.2148 6.45199 13.0304 7.45465 13.0304H11.2121C12.2148 13.0304 13.0304 12.2148 13.0304 11.2121V7.45465C13.0304 6.45199 12.2148 5.63637 11.2121 5.63637ZM11.2726 11.2121C11.2726 11.2455 11.2455 11.2726 11.2121 11.2726H7.45465C7.42125 11.2726 7.39418 11.2455 7.39418 11.2121V7.45465C7.39418 7.42125 7.42125 7.39418 7.45465 7.39418H11.2121C11.2455 7.39418 11.2726 7.42125 11.2726 7.45465V11.2121Z" fill="white"/>
<path d="M53.4848 5.63637H50.6667C50.1813 5.63637 49.7878 6.02988 49.7878 6.51527C49.7878 7.00066 50.1813 7.39418 50.6667 7.39418H53.4848C53.9702 7.39418 54.3637 7.00066 54.3637 6.51527C54.3637 6.02988 53.9702 5.63637 53.4848 5.63637Z" fill="white"/>
<path d="M53.4848 10.3334H50.6667C50.1813 10.3334 49.7878 10.7269 49.7878 11.2123C49.7878 11.6976 50.1813 12.0912 50.6667 12.0912H53.4848C53.9702 12.0912 54.3637 11.6976 54.3637 11.2123C54.3637 10.7269 53.9702 10.3334 53.4848 10.3334Z" fill="white"/>
<path d="M53.4848 15.0302H50.6667C50.1813 15.0302 49.7878 15.4237 49.7878 15.9091C49.7878 16.3945 50.1813 16.788 50.6667 16.788H53.4848C53.9702 16.788 54.3637 16.3945 54.3637 15.9091C54.3637 15.4237 53.9702 15.0302 53.4848 15.0302Z" fill="white"/>
<path d="M44.0909 47.9089H15.9091C15.4237 47.9089 15.0302 48.3025 15.0302 48.7878C15.0302 49.2732 15.4237 49.6667 15.9091 49.6667H44.0907C44.5761 49.6667 44.9696 49.2732 44.9696 48.7878C44.9696 48.3025 44.5762 47.9089 44.0909 47.9089Z" fill="white"/>
<path d="M40.3332 51.6664H19.6668C19.1814 51.6664 18.7879 52.06 18.7879 52.5453C18.7879 53.0307 19.1814 53.4243 19.6668 53.4243H40.3332C40.8186 53.4243 41.2122 53.0307 41.2122 52.5453C41.2122 52.06 40.8186 51.6664 40.3332 51.6664Z" fill="white"/>
</svg>
