<?xml version="1.0"?>
<svg xmlns="http://www.w3.org/2000/svg" xmlns:xlink="http://www.w3.org/1999/xlink" version="1.1" id="Capa_1" x="0px" y="0px" viewBox="0 0 512 512" style="enable-background:new 0 0 512 512;" xml:space="preserve" width="512px" height="512px" class=""><g><g>
	<path d="M54.754,149.62h87.326l-29.633,43.741c-2.323,3.429-1.426,8.092,2.003,10.415c3.43,2.322,8.093,1.427,10.416-2.003   l35.332-52.153h48.731l81.4,120.155c1.45,2.14,3.812,3.294,6.216,3.294c1.448,0,2.911-0.419,4.2-1.292   c3.429-2.323,4.326-6.986,2.003-10.415l-80.751-119.196l48.252-69.697c6.55-9.462,7.301-21.671,1.96-31.864   S256.402,24.08,244.895,24.08H124.232c-11.508,0-21.974,6.332-27.315,16.525s-4.59,22.402,1.96,31.865l31.663,45.734L66.664,80.396   c-3.565-2.109-8.164-0.93-10.274,2.634c-2.11,3.564-0.931,8.165,2.634,10.274l69.801,41.315h-74.07c-4.142,0-7.5,3.357-7.5,7.5   S50.612,149.62,54.754,149.62z M110.204,47.567c2.785-5.314,8.029-8.487,14.028-8.487h120.662c6,0,11.244,3.173,14.028,8.487   c2.785,5.313,2.408,11.432-1.007,16.364l-48.938,70.688h-48.828l-48.938-70.688C107.796,58.999,107.419,52.881,110.204,47.567z" data-original="#000000" class="active-path" data-old_color="#1e80f2" fill="#1e80f2"/>
	<path d="M393.083,250.087c-65.571,0-118.917,53.346-118.917,118.917c0,36.209,16.273,68.685,41.883,90.514   c-13.427,8.683-29.198,13.402-45.309,13.402H98.39c-22.276,0-43.217-8.674-58.967-24.424C23.674,432.747,15,411.806,15,389.53   c0-16.737,4.962-32.908,14.349-46.764l78.52-115.899c2.323-3.43,1.427-8.093-2.002-10.416c-3.429-2.322-8.093-1.427-10.416,2.002   l-78.52,115.899C5.854,350.701,0,369.781,0,389.53c0,26.282,10.234,50.99,28.817,69.573c18.582,18.582,43.291,28.816,69.573,28.816   h172.35c20.862,0,41.245-6.703,58.015-18.945c18.557,11.982,40.644,18.945,64.328,18.945C458.654,487.92,512,434.574,512,369.004   C512,303.433,458.654,250.087,393.083,250.087z M393.083,472.92c-57.3,0-103.917-46.616-103.917-103.916   s46.617-103.917,103.917-103.917S497,311.704,497,369.004S450.383,472.92,393.083,472.92z" data-original="#000000" class="active-path" data-old_color="#1e80f2" fill="#1e80f2"/>
	<path d="M470.074,327.032c-1.986-3.635-6.542-4.972-10.177-2.986c-3.635,1.985-4.973,6.542-2.987,10.178   c5.787,10.595,8.846,22.621,8.846,34.78c0,40.072-32.601,72.673-72.673,72.673s-72.673-32.601-72.673-72.673   s32.601-72.673,72.673-72.673c16.979,0,33.497,5.978,46.512,16.831c3.181,2.653,7.911,2.224,10.563-0.956   c2.653-3.182,2.225-7.911-0.956-10.563c-15.706-13.098-35.636-20.312-56.119-20.312c-48.343,0-87.673,39.33-87.673,87.673   s39.33,87.673,87.673,87.673s87.673-39.33,87.673-87.673C480.756,354.34,477.063,339.826,470.074,327.032z" data-original="#000000" class="active-path" data-old_color="#1e80f2" fill="#1e80f2"/>
	<path d="M393.083,426.906c4.142,0,7.5-3.357,7.5-7.5v-7.827h2.454c13.806,0,25.038-11.232,25.038-25.038   s-11.232-25.037-25.038-25.037h-19.908c-5.535,0-10.038-4.503-10.038-10.038s4.503-10.038,10.038-10.038h29.192   c4.142,0,7.5-3.357,7.5-7.5s-3.358-7.5-7.5-7.5h-11.738v-7.827c0-4.143-3.358-7.5-7.5-7.5s-7.5,3.357-7.5,7.5v7.827h-2.454   c-13.806,0-25.038,11.232-25.038,25.038s11.232,25.038,25.038,25.038h19.908c5.535,0,10.038,4.503,10.038,10.037   c0,5.535-4.503,10.038-10.038,10.038h-29.192c-4.142,0-7.5,3.357-7.5,7.5s3.358,7.5,7.5,7.5h11.739v7.827   C385.583,423.549,388.941,426.906,393.083,426.906z" data-original="#000000" class="active-path" data-old_color="#1e80f2" fill="#1e80f2"/>
	<path d="M332.578,156.935l5.861-4.688v68.76c0,4.143,3.358,7.5,7.5,7.5s7.5-3.357,7.5-7.5v-68.76l5.861,4.688   c1.383,1.106,3.037,1.644,4.68,1.644c2.2,0,4.38-0.963,5.861-2.814c2.588-3.235,2.063-7.954-1.171-10.542l-18.046-14.437   c-0.019-0.016-0.042-0.025-0.061-0.041c-0.315-0.248-0.648-0.473-1.001-0.668c-0.007-0.003-0.013-0.008-0.02-0.012   c-0.339-0.186-0.696-0.339-1.064-0.472c-0.05-0.018-0.1-0.038-0.15-0.055c-0.347-0.116-0.704-0.207-1.071-0.272   c-0.065-0.011-0.129-0.02-0.193-0.029c-0.368-0.056-0.741-0.093-1.124-0.093s-0.756,0.038-1.124,0.093   c-0.065,0.01-0.129,0.018-0.193,0.029c-0.367,0.065-0.725,0.156-1.071,0.272c-0.051,0.017-0.1,0.037-0.15,0.055   c-0.368,0.132-0.725,0.286-1.064,0.472c-0.007,0.004-0.013,0.009-0.02,0.012c-0.353,0.195-0.686,0.421-1.001,0.668   c-0.02,0.016-0.042,0.025-0.061,0.041l-18.046,14.437c-3.234,2.588-3.759,7.307-1.171,10.542   C324.624,158.997,329.342,159.522,332.578,156.935z" data-original="#000000" class="active-path" data-old_color="#1e80f2" fill="#1e80f2"/>
	<path d="M426.867,116.712l5.861-4.688v68.76c0,4.143,3.358,7.5,7.5,7.5s7.5-3.357,7.5-7.5v-68.76l5.861,4.688   c1.383,1.106,3.037,1.644,4.68,1.644c2.2,0,4.38-0.963,5.861-2.814c2.588-3.235,2.063-7.954-1.171-10.542l-18.046-14.437   c-0.019-0.016-0.042-0.025-0.061-0.041c-0.315-0.248-0.648-0.473-1.001-0.668c-0.007-0.003-0.013-0.008-0.02-0.012   c-0.339-0.186-0.696-0.339-1.064-0.472c-0.05-0.018-0.1-0.038-0.15-0.055c-0.347-0.116-0.704-0.207-1.071-0.272   c-0.065-0.011-0.129-0.02-0.193-0.029c-0.368-0.056-0.741-0.093-1.124-0.093s-0.756,0.038-1.124,0.093   c-0.065,0.01-0.129,0.018-0.193,0.029c-0.367,0.065-0.725,0.156-1.071,0.272c-0.051,0.017-0.1,0.037-0.15,0.055   c-0.368,0.132-0.725,0.286-1.064,0.472c-0.007,0.004-0.013,0.009-0.02,0.012c-0.353,0.195-0.686,0.421-1.001,0.668   c-0.02,0.016-0.042,0.025-0.061,0.041l-18.046,14.437c-3.234,2.588-3.759,7.307-1.171,10.542   C418.913,118.774,423.632,119.299,426.867,116.712z" data-original="#000000" class="active-path" data-old_color="#1e80f2" fill="#1e80f2"/>
</g></g> </svg>
